<svg width="127" height="48" viewBox="0 0 127 48" fill="none" xmlns="http://www.w3.org/2000/svg">
<g style="mix-blend-mode:luminosity" clip-path="url(#clip0_1_613)">
<path fill-rule="evenodd" clip-rule="evenodd" d="M125.591 30.5633C120.335 38.4606 112.012 36.1691 109.512 34.3749C108.448 35.0147 106.583 36.417 104.095 36.255C98.7977 35.9104 96.9006 29.2007 96.9006 29.2007C96.9387 29.2275 95.3225 29.6949 94.4491 29.6866C94.4379 31.6542 92.5188 36.3546 87.3394 36.2945C81.5275 36.2273 80.3459 28.5531 80.3459 28.5531C80.3459 28.5531 79.7676 29.2649 77.5685 29.9739C77.6792 28.4622 77.5982 36.0644 70.6324 36.1761C65.1254 36.2646 63.6389 28.4348 63.6389 28.4348C63.6389 28.4348 62.6835 29.3143 60.8321 29.6194C60.9497 28.0831 60.7584 36.2019 53.7917 36.1761C49.0837 36.1588 47.4749 31.353 47.6 30.686C47.7597 29.8359 46.0089 36.2957 41.4357 36.195C39.5485 36.1459 38.1416 34.9349 37.2588 33.3204C36.0769 34.5189 34.361 36.195 32.4361 36.195C28.9808 36.195 27.4575 33.6337 27.7155 26.3179C27.7375 25.4502 27.6668 25.109 26.6936 24.9792C26.1094 24.8928 25.5112 24.7292 24.8782 24.643C24.6754 25.243 22.9547 35.9998 17.0378 36.204C15.0528 36.2725 13.9674 34.7485 13.076 33.6174C11.7097 35.2194 9.90595 36.255 7.33642 36.255C2.98383 36.255 0.01828 33.1365 0.01828 29.2895C0.01828 25.4425 2.98383 22.3242 7.33642 22.3242C8.106 22.3242 8.32204 22.422 9.0251 22.6038C7.57923 10.9365 10.9938 9.11303 13.9808 9.11303C16.8485 9.11303 21.7476 15.012 14.8541 29.9751C16.3846 34.4381 19.684 34.1857 21.2695 24.9982C21.5922 23.1307 20.7294 20.6105 22.0715 20.2588C24.5248 19.616 24.7851 21.5446 25.9354 21.866C27.1517 22.2056 27.8616 22.1724 29.0292 22.3885C31.0245 22.7339 31.8031 23.6838 31.56 25.7996C31.2681 28.4767 30.7574 32.3732 32.3144 32.8481C33.4372 33.1931 35.4872 31.1293 35.847 30.0001C36.2066 28.871 36.2817 28.4845 36.3137 27.6563C36.3623 25.8861 36.4234 24.5886 36.764 23.2499C36.9097 22.7319 37.0759 22.3888 37.7372 22.3654C38.2813 22.3531 39.2763 22.2079 39.7144 22.51C40.2982 22.8988 40.2252 23.2933 40.1582 24.3316C39.4792 39.1353 44.7052 31.7452 46.2634 25.8279C45.7085 19.1369 46.0895 9.23555 50.8203 9.06949C53.2807 8.98313 54.3685 10.7301 54.4881 12.034C54.8265 15.7168 52.9309 21.8172 50.4379 25.9197C49.0131 34.2907 56.6675 35.9459 57.8916 29.2642C55.8889 28.4202 53.7246 25.0044 55.4858 23.3397C56.4741 22.4055 60.5878 23.7476 60.6552 26.6748C62.6731 26.1965 62.9425 25.1867 62.9705 25.354C62.4158 18.663 62.9302 9.23564 67.6614 9.06957C70.1215 8.98321 71.2091 10.7301 71.3287 12.0341C71.6671 15.7168 69.7715 21.8173 67.2788 25.9199C65.8539 34.2907 73.5085 35.946 74.7322 29.2643C73.2495 29.0107 70.1195 25.3775 71.9255 23.3398C72.8906 22.2509 76.9893 24.5154 77.4481 26.7717C79.3866 26.2855 79.6499 25.3078 79.6777 25.4724C79.1228 18.7816 79.6373 9.35422 84.3685 9.18815C86.8286 9.10179 87.9162 10.8487 88.0358 12.1527C88.3742 15.8354 86.4786 21.936 83.9856 26.0385C82.5609 34.4095 90.2154 36.0644 91.4395 29.3827C89.4019 29.082 86.5061 25.2458 88.8367 23.2833C89.7679 22.4992 93.326 24.5346 94.1589 26.8568C95.3161 26.8173 96.0364 26.4636 96.1908 26.4279C94.3434 18.573 95.7187 9.14836 100.808 9.06969C103.559 9.02721 106.248 10.3877 105.068 17.8606C103.941 24.9906 99.8909 27.9827 99.9003 28.0285C100.136 28.8827 102.214 36.0312 107.448 32.2594C107.177 31.7157 106.906 31.1603 106.754 30.4874C105.887 26.5677 107.591 22.1404 112.222 21.4249C114.875 21.0149 117.374 22.1598 117.77 24.741C118.42 28.9645 114.117 32.0233 112.48 32.6868C111.747 32.3178 119.124 36.5107 123.502 28.108C123.755 27.6282 124.061 27.6689 124.458 27.9162C124.738 28.0908 126.333 29.4299 125.591 30.5633ZM10.5025 28.2517C10.2798 27.6615 9.82268 26.361 9.66104 25.7976C8.7708 25.1114 8.13538 25 6.99268 25C4.45325 25 2.95858 27.0809 2.95858 29.3247C2.95858 31.5684 4.58691 33.6496 7.12635 33.6496C9.32707 33.6496 11.002 32.3235 11.513 30.4462C11.1554 29.7143 10.8005 29.0417 10.5025 28.2517ZM13.9186 12.2015C12.1342 12.2015 11.5289 15.974 11.6464 19.1924C11.7503 22.0378 12.6474 24.5428 13.1128 25.6653C13.2309 25.8059 13.209 25.7144 13.3145 25.8636C16.4127 19.8472 15.1276 12.2015 13.9186 12.2015ZM51.0752 12.32C48.769 12.0855 48.7839 20.6001 49.0702 22.51C50.2679 20.8118 52.3486 12.7772 51.0752 12.32ZM67.9158 12.32C65.6096 12.0855 65.6245 20.6001 65.9109 22.51C67.1086 20.8118 69.1893 12.7772 67.9158 12.32ZM84.623 12.4384C82.3167 12.204 82.3316 20.7186 82.618 22.6287C83.8156 20.9303 85.8964 12.8956 84.623 12.4384ZM101.063 11.8215C97.4695 12.461 98.3062 23.0789 98.852 24.9412C103.084 19.789 103.172 11.628 101.063 11.8215ZM114.529 25.0903C114.346 24.4133 113.433 24.0515 112.802 24.1407C110.998 24.359 109.248 26.3505 109.926 29.3824C110.076 30.0576 110.454 30.6792 110.448 30.6585C114.485 28.2577 114.828 26.3659 114.529 25.0903ZM38.4444 20.0218C37.9288 20.0219 37.4247 19.8864 36.996 19.6326C36.5672 19.3787 36.2329 19.0179 36.0355 18.5957C35.8381 18.1735 35.7864 17.7089 35.8871 17.2607C35.9875 16.8124 36.2359 16.4007 36.6005 16.0775C36.965 15.7543 37.4295 15.5342 37.9352 15.4451C38.441 15.3559 38.9652 15.4016 39.4416 15.5765C39.9181 15.7514 40.3252 16.0476 40.6116 16.4276C40.8981 16.8076 41.051 17.2544 41.051 17.7114C41.051 18.0148 40.9836 18.3152 40.8526 18.5955C40.7217 18.8758 40.5297 19.1305 40.2876 19.345C40.0455 19.5596 39.7582 19.7298 39.442 19.8459C39.1257 19.962 38.7868 20.0218 38.4444 20.0218Z" fill="#0D0C22"/>
</g>
<defs>
<clipPath id="clip0_1_613">
<rect width="126.369" height="48" fill="white" transform="translate(0.01828)"/>
</clipPath>
</defs>
</svg>
