<svg width="126" height="48" viewBox="0 0 126 48" fill="none" xmlns="http://www.w3.org/2000/svg">
<g style="mix-blend-mode:luminosity" clip-path="url(#clip0_1_616)">
<path d="M17.5022 38.0663C15.6181 38.3595 13.7008 38.4474 11.7175 38.6816L5.66819 22.9786V39.3555C3.78409 39.5313 2.06524 39.7656 0.280212 40V10H5.3048L12.1802 27.0217V10H17.5022V38.0663ZM27.9147 20.9863C29.9643 20.9863 33.1046 20.8984 34.9887 20.8984V25.5858C32.6416 25.5858 29.8981 25.5858 27.9147 25.6737V32.6465C31.0221 32.4708 34.1293 32.2362 37.2694 32.1483V36.6597L22.6257 37.6854V10H37.2694V14.6875H27.9147V20.9863ZM56.9375 14.6876H51.4503V36.2501C49.6653 36.2501 47.8803 36.2501 46.1616 36.3085V14.6876H40.6745V10H56.9377L56.9375 14.6876ZM65.5319 20.6642H72.7712V25.3516H65.5319V35.9864H60.3418V10H75.1181V14.6875H65.5319V20.6642ZM83.7125 31.8848C86.7206 31.9432 89.7616 32.1486 92.7037 32.2948V36.9238C87.9768 36.66 83.2498 36.3966 78.4237 36.3085V10H83.7125V31.8848ZM97.1661 37.2461C98.852 37.3341 100.637 37.422 102.356 37.5975V10H97.1661V37.2461ZM125.528 10L118.818 24.2676L125.528 40C123.544 39.7656 121.561 39.4433 119.578 39.1503L115.777 30.4786L111.909 38.4474C109.992 38.1542 108.141 38.0663 106.224 37.8319L113.033 24.0917L106.885 10H112.57L116.041 17.8809L119.743 10H125.528V10Z" fill="#D81F26"/>
</g>
<defs>
<clipPath id="clip0_1_616">
<rect width="125.241" height="48" fill="white" transform="translate(0.280212)"/>
</clipPath>
</defs>
</svg>
